<svg xmlns="http://www.w3.org/2000/svg" version="1.1" xmlns:xlink="http://www.w3.org/1999/xlink" xmlns:svgjs="http://svgjs.com/svgjs" width="1440" height="560" preserveAspectRatio="none" viewBox="0 0 1440 560"><g mask="url(&quot;#SvgjsMask1320&quot;)" fill="none"><rect width="1440" height="560" x="0" y="0" fill="#0e2a47"></rect><g transform="translate(0, 22.4)" stroke-linecap="round" stroke="url(#SvgjsLinearGradient1321)"><path d="M280 120.38 L280 439.63" stroke-width="12"></path><path d="M296 159.76 L296 400.24" stroke-width="12"></path><path d="M312 239.49 L312 320.51" stroke-width="12"></path><path d="M328 215.81 L328 344.19" stroke-width="12"></path><path d="M344 135.03 L344 424.97" stroke-width="12"></path><path d="M360 150.1 L360 409.89" stroke-width="12"></path><path d="M376 111.85 L376 448.14" stroke-width="12"></path><path d="M392 116.5 L392 443.5" stroke-width="12"></path><path d="M408 215.5 L408 344.5" stroke-width="12"></path><path d="M424 261.3 L424 298.7" stroke-width="12"></path><path d="M440 250.66 L440 309.34" stroke-width="12"></path><path d="M456 213.05 L456 346.95" stroke-width="12"></path><path d="M472 220.75 L472 339.25" stroke-width="12"></path><path d="M488 128.5 L488 431.5" stroke-width="12"></path><path d="M504 245.7 L504 314.3" stroke-width="12"></path><path d="M520 120.53 L520 439.47" stroke-width="12"></path><path d="M536 242.25 L536 317.75" stroke-width="12"></path><path d="M552 144.97 L552 415.02" stroke-width="12"></path><path d="M568 132.15 L568 427.85" stroke-width="12"></path><path d="M584 149.5 L584 410.5" stroke-width="12"></path><path d="M600 116.1 L600 443.89" stroke-width="12"></path><path d="M616 155.81 L616 404.19" stroke-width="12"></path><path d="M632 212.12 L632 347.88" stroke-width="12"></path><path d="M648 168.57 L648 391.43" stroke-width="12"></path><path d="M664 161.76 L664 398.24" stroke-width="12"></path><path d="M680 221.93 L680 338.07" stroke-width="12"></path><path d="M696 248.63 L696 311.38" stroke-width="12"></path><path d="M712 246.81 L712 313.19" stroke-width="12"></path><path d="M728 222.06 L728 337.94" stroke-width="12"></path><path d="M744 152.81 L744 407.19" stroke-width="12"></path><path d="M760 204.72 L760 355.28" stroke-width="12"></path><path d="M776 250.63 L776 309.37" stroke-width="12"></path><path d="M792 240.22 L792 319.78" stroke-width="12"></path><path d="M808 128.99 L808 431.01" stroke-width="12"></path><path d="M824 225.99 L824 334.01" stroke-width="12"></path><path d="M840 179.09 L840 380.9" stroke-width="12"></path><path d="M856 174.37 L856 385.63" stroke-width="12"></path><path d="M872 205.63 L872 354.37" stroke-width="12"></path><path d="M888 165.05 L888 394.95" stroke-width="12"></path><path d="M904 129.94 L904 430.06" stroke-width="12"></path><path d="M920 139.53 L920 420.47" stroke-width="12"></path><path d="M936 125.39 L936 434.61" stroke-width="12"></path><path d="M952 155.19 L952 404.81" stroke-width="12"></path><path d="M968 250.13 L968 309.87" stroke-width="12"></path><path d="M984 187.75 L984 372.25" stroke-width="12"></path><path d="M1000 229.22 L1000 330.77" stroke-width="12"></path><path d="M1016 252.31 L1016 307.69" stroke-width="12"></path><path d="M1032 241.91 L1032 318.09" stroke-width="12"></path><path d="M1048 235.06 L1048 324.94" stroke-width="12"></path><path d="M1064 223.22 L1064 336.78" stroke-width="12"></path><path d="M1080 120.59 L1080 439.41" stroke-width="12"></path><path d="M1096 258.56 L1096 301.44" stroke-width="12"></path><path d="M1112 147.23 L1112 412.77" stroke-width="12"></path><path d="M1128 246.75 L1128 313.25" stroke-width="12"></path><path d="M1144 121.13 L1144 438.87" stroke-width="12"></path><path d="M1160 125.79 L1160 434.21" stroke-width="12"></path></g></g><defs><mask id="SvgjsMask1320"><rect width="1440" height="560" fill="#ffffff"></rect></mask><linearGradient x1="266.4" y1="280" x2="1173.6" y2="280" gradientUnits="userSpaceOnUse" id="SvgjsLinearGradient1321"><stop stop-color="#3a7cc3" offset="0"></stop><stop stop-color="rgba(136, 17, 221, 1)" offset="1"></stop></linearGradient></defs></svg>