<svg xmlns="http://www.w3.org/2000/svg" version="1.1" xmlns:xlink="http://www.w3.org/1999/xlink" xmlns:svgjs="http://svgjs.com/svgjs" width="1440" height="560" preserveAspectRatio="none" viewBox="0 0 1440 560"><g mask="url(&quot;#SvgjsMask1817&quot;)" fill="none"><rect width="1440" height="560" x="0" y="0" fill="url(#SvgjsLinearGradient1818)"></rect><path d="M266.736,370.961C296.845,370.022,315.917,341.728,329.805,314.997C342.355,290.842,348.534,262.786,335.294,239.002C321.732,214.639,294.606,202.589,266.736,201.701C237.008,200.754,205.436,208.853,190.166,234.377C174.573,260.441,181.613,292.662,196.465,319.155C211.717,346.361,235.561,371.933,266.736,370.961" fill="rgba(28, 83, 142, 0.4)" class="triangle-float2"></path><path d="M-90 372.07 a160.29 160.29 0 1 0 320.58 0 a160.29 160.29 0 1 0 -320.58 0z" fill="rgba(28, 83, 142, 0.4)" class="triangle-float2"></path><path d="M1049.47 453.32 a158.23 158.23 0 1 0 316.46 0 a158.23 158.23 0 1 0 -316.46 0z" fill="rgba(28, 83, 142, 0.4)" class="triangle-float2"></path><path d="M505.71 477.22 a120.51 120.51 0 1 0 241.02 0 a120.51 120.51 0 1 0 -241.02 0z" fill="rgba(28, 83, 142, 0.4)" class="triangle-float3"></path><path d="M695.54 255.87 a140.75 140.75 0 1 0 281.5 0 a140.75 140.75 0 1 0 -281.5 0z" fill="rgba(28, 83, 142, 0.4)" class="triangle-float1"></path><path d="M445.74 311.68 a144.7 144.7 0 1 0 289.4 0 a144.7 144.7 0 1 0 -289.4 0z" fill="rgba(28, 83, 142, 0.4)" class="triangle-float1"></path></g><defs><mask id="SvgjsMask1817"><rect width="1440" height="560" fill="#ffffff"></rect></mask><linearGradient x1="15.28%" y1="-39.29%" x2="84.72%" y2="139.29%" gradientUnits="userSpaceOnUse" id="SvgjsLinearGradient1818"><stop stop-color="#0e2a47" offset="0"></stop><stop stop-color="rgba(63, 212, 255, 1)" offset="1"></stop></linearGradient><style>
            @keyframes float1 {
                0%{transform: translate(0, 0)}
                50%{transform: translate(-10px, 0)}
                100%{transform: translate(0, 0)}
            }

            .triangle-float1 {
                animation: float1 5s infinite;
            }

            @keyframes float2 {
                0%{transform: translate(0, 0)}
                50%{transform: translate(-5px, -5px)}
                100%{transform: translate(0, 0)}
            }

            .triangle-float2 {
                animation: float2 4s infinite;
            }

            @keyframes float3 {
                0%{transform: translate(0, 0)}
                50%{transform: translate(0, -10px)}
                100%{transform: translate(0, 0)}
            }

            .triangle-float3 {
                animation: float3 6s infinite;
            }
        </style></defs></svg>